<?xml version="1.0" encoding="utf-8"?>
<!-- Generator: Adobe Illustrator 16.0.0, SVG Export Plug-In . SVG Version: 6.00 Build 0)  -->
<!DOCTYPE svg PUBLIC "-//W3C//DTD SVG 1.1//EN" "http://www.w3.org/Graphics/SVG/1.1/DTD/svg11.dtd">
<svg version="1.1" id="레이어_1" xmlns="http://www.w3.org/2000/svg" xmlns:xlink="http://www.w3.org/1999/xlink" x="0px"
	 y="0px" width="505.246px" height="210.17px" viewBox="0 0 505.246 210.17" enable-background="new 0 0 505.246 210.17"
	 xml:space="preserve">
<g>
	<path fill="#FFFFFF" d="M55.915,13.474c-1.519-2.295-3.3-4.292-5.32-5.987c-1.157-1.004-2.486-1.959-3.979-2.841
		c-1.47-0.894-3.27-1.69-5.376-2.406c-2.1-0.71-4.475-1.261-7.114-1.653c-2.645-0.392-5.804-0.588-9.508-0.588H0v60.434h31.064
		h0.906c7.622,0,13.566-1.708,17.822-5.105c2.981-2.327,5.577-5.357,7.8-9.11c2.191-3.759,3.306-8.725,3.306-14.92
		c0-3.539-0.453-6.827-1.353-9.851C58.651,18.421,57.445,15.764,55.915,13.474z M37.621,44.514
		c-3.429,2.259-7.481,3.404-12.141,3.404h-7.609V12.121h7.609c2.676,0,5.309,0.459,7.867,1.396c2.59,0.931,4.794,2.773,6.637,5.516
		c1.843,2.743,2.749,6.569,2.749,11.485C42.733,37.583,41.02,42.249,37.621,44.514z"/>
	<path fill="#FFFFFF" d="M78.44,43.727c-1.426-0.839-2.957-1.268-4.542-1.268c-2.535,0-4.715,0.906-6.526,2.73
		c-1.831,1.813-2.737,4.035-2.737,6.643c0,2.59,0.906,4.807,2.737,6.631c1.812,1.837,3.991,2.755,6.526,2.755
		c2.564,0,4.732-0.912,6.471-2.736c1.757-1.813,2.633-4.028,2.633-6.649c0-1.714-0.404-3.287-1.2-4.702
		C81.012,45.705,79.886,44.572,78.44,43.727z"/>
	<polygon fill="#FFFFFF" points="138.778,33.483 108.143,0 92.298,0 92.298,60.427 109.991,60.427 109.991,26.766 140.701,60.427 
		156.601,60.427 156.601,0 138.778,0 	"/>
	<path fill="#FFFFFF" d="M221.959,8.386c-2.773-2.835-6.306-5.082-10.585-6.735c-4.292-1.653-9.159-2.479-14.626-2.479
		c-7.316,0-13.53,1.439-18.606,4.335c-5.094,2.883-8.858,6.698-11.308,11.424c-2.442,4.721-3.674,9.803-3.674,15.232
		c0,5.406,1.231,10.481,3.686,15.221c2.468,4.738,6.233,8.559,11.314,11.473c5.069,2.902,11.271,4.359,18.588,4.359
		c7.23,0,13.383-1.39,18.403-4.188c5.057-2.792,8.853-6.558,11.394-11.29c2.547-4.745,3.839-9.931,3.839-15.575
		c0-4.15-0.71-8.118-2.149-11.877C226.809,14.52,224.708,11.22,221.959,8.386z M210.37,38.219c-1.188,2.339-2.933,4.157-5.253,5.486
		c-2.309,1.322-5.094,1.983-8.369,1.983c-4.758,0-8.517-1.427-11.266-4.298c-2.743-2.853-4.12-6.606-4.12-11.229
		c0-4.629,1.365-8.351,4.108-11.191c2.73-2.859,6.495-4.286,11.277-4.286c2.504,0,4.708,0.392,6.624,1.163
		c1.892,0.771,3.526,1.843,4.843,3.22c1.322,1.384,2.326,3.012,2.963,4.886c0.668,1.874,0.998,3.942,0.998,6.208
		C212.176,33.187,211.57,35.881,210.37,38.219z"/>
	<polygon fill="#FFFFFF" points="271.507,22.671 253.311,0 237.105,0 237.105,60.427 254.45,60.427 254.45,25.42 270.606,45.691 
		272.021,45.691 288.116,25.42 288.116,60.427 305.987,60.427 305.987,0 289.788,0 	"/>
	<path fill="#FFFFFF" d="M337.098,0l-26.191,60.427h18.281l4.916-12.251h25.738l4.818,12.251h18.288L356.854,0H337.098z
		 M338.298,37.659l8.755-22.047l8.682,22.047H338.298z"/>
	<path fill="#FFFFFF" d="M443.732,13.474c-1.519-2.295-3.288-4.292-5.309-5.987c-1.175-1.01-2.497-1.959-3.985-2.841
		c-1.469-0.894-3.275-1.69-5.388-2.406c-2.1-0.71-4.476-1.261-7.102-1.653c-2.639-0.392-5.811-0.588-9.508-0.588h-24.605v60.434
		H418.9h0.894c7.622,0,13.562-1.708,17.81-5.105c2.988-2.327,5.584-5.357,7.794-9.11c2.204-3.759,3.324-8.725,3.324-14.92
		c0-3.539-0.459-6.827-1.358-9.851C446.476,18.415,445.263,15.764,443.732,13.474z M425.421,44.514
		c-3.404,2.259-7.457,3.404-12.123,3.404h-7.616V12.121h7.616c2.67,0,5.309,0.459,7.861,1.396c2.584,0.931,4.813,2.773,6.637,5.504
		c1.837,2.755,2.749,6.582,2.749,11.498C430.545,37.583,428.843,42.249,425.421,44.514z"/>
	<polygon fill="#FFFFFF" points="472.95,35.356 503.323,35.356 503.323,23.185 472.95,23.185 472.95,12.122 504.511,12.122 
		504.511,0 455.092,0 455.092,60.427 505.246,60.427 505.246,48.268 472.95,48.268 	"/>
</g>
<g>
	<path fill="#FFFFFF" d="M-1.224,205.146v-49.474h15.563c6.456,0,11.649,1.988,15.579,5.964c3.93,3.976,5.896,9.112,5.896,15.409
		v6.762c0,6.32-1.966,11.457-5.896,15.409c-3.93,3.953-9.123,5.93-15.579,5.93H-1.224z M5.47,160.939v38.974h8.869
		c4.575,0,8.183-1.507,10.822-4.52c2.639-3.013,3.958-6.875,3.958-11.587v-6.829c0-4.667-1.32-8.506-3.958-11.52
		c-2.639-3.013-6.247-4.519-10.822-4.519H5.47z"/>
	<path fill="#FFFFFF" d="M85.444,182.21H65.125v17.703H88.91v5.232H58.431v-49.474h30.105v5.268H65.125v16.004h20.319V182.21z"/>
	<path fill="#FFFFFF" d="M135.72,192.675c0-2.242-0.804-4.122-2.413-5.64c-1.609-1.518-4.44-2.809-8.495-3.874
		c-5.029-1.245-8.954-3.08-11.774-5.505c-2.82-2.423-4.23-5.47-4.23-9.14c0-3.874,1.517-7.102,4.553-9.685
		c3.035-2.582,6.977-3.873,11.824-3.873c5.21,0,9.361,1.478,12.454,4.434c3.092,2.957,4.592,6.405,4.502,10.347l-0.102,0.204h-6.388
		c0-2.809-0.98-5.131-2.939-6.966c-1.959-1.835-4.468-2.752-7.526-2.752c-3.126,0-5.521,0.759-7.187,2.276
		c-1.665,1.518-2.497,3.489-2.497,5.912c0,2.152,0.912,3.947,2.735,5.386c1.823,1.439,4.785,2.701,8.885,3.789
		c4.983,1.291,8.778,3.193,11.383,5.708s3.908,5.618,3.908,9.311c0,3.987-1.569,7.192-4.706,9.616
		c-3.138,2.424-7.232,3.636-12.283,3.636c-4.78,0-9-1.337-12.657-4.01c-3.659-2.673-5.432-6.252-5.318-10.737l0.068-0.204h6.388
		c0,3.104,1.178,5.499,3.534,7.187s5.017,2.531,7.985,2.531c3.171,0,5.68-0.713,7.526-2.141
		C134.797,197.059,135.72,195.122,135.72,192.675z"/>
	<path fill="#FFFFFF" d="M171.827,205.146H165.1v-49.474h6.728V205.146z"/>
	<path fill="#FFFFFF" d="M232.195,198.485c-1.178,1.835-3.223,3.523-6.133,5.063c-2.911,1.54-6.688,2.311-11.332,2.311
		c-5.708,0-10.432-1.892-14.169-5.675c-3.737-3.783-5.606-8.676-5.606-14.679v-10.193c0-6.003,1.801-10.896,5.403-14.68
		c3.602-3.782,8.245-5.674,13.931-5.674c5.505,0,9.854,1.467,13.048,4.4c3.194,2.934,4.746,6.665,4.655,11.195l-0.068,0.204h-6.422
		c0-3.013-0.974-5.521-2.922-7.526c-1.949-2.005-4.712-3.007-8.291-3.007c-3.783,0-6.83,1.416-9.14,4.247
		c-2.311,2.832-3.466,6.422-3.466,10.771v10.262c0,4.395,1.223,8.014,3.669,10.856c2.447,2.843,5.573,4.264,9.378,4.264
		c2.922,0,5.238-0.379,6.949-1.138c1.71-0.759,2.984-1.659,3.822-2.701v-11.146h-11.213v-5.232h17.907V198.485z"/>
	<path fill="#FFFFFF" d="M293.686,205.146h-6.694l-23.819-37.784l-0.203,0.067v37.717h-6.694v-49.474h6.694l23.818,37.751
		l0.204-0.068v-37.683h6.694V205.146z"/>
	<path fill="#FFFFFF" d="M343.52,210.378h-31.362v-5.232h31.362V210.378z"/>
	<path fill="#FFFFFF" d="M368.652,199.913h24.124v5.232h-30.818v-49.474h6.694V199.913z"/>
	<path fill="#FFFFFF" d="M438.941,192.403h-18.62l-4.417,12.742h-6.83l17.839-49.474h5.742l17.466,49.474h-6.83L438.941,192.403z
		 M422.258,186.797h14.781l-7.204-21.236h-0.203L422.258,186.797z"/>
	<path fill="#FFFFFF" d="M469.918,205.146v-49.474h16.14c5.165,0,9.209,1.116,12.131,3.348s4.383,5.578,4.383,10.04
		c0,2.13-0.657,4.039-1.971,5.726c-1.313,1.688-3.058,2.974-5.232,3.856c3.239,0.454,5.805,1.858,7.696,4.214
		c1.891,2.356,2.837,5.131,2.837,8.325c0,4.53-1.473,7.99-4.417,10.38c-2.945,2.391-6.932,3.585-11.961,3.585H469.918z
		 M476.612,176.705h10.839c2.491,0,4.52-0.685,6.082-2.056c1.563-1.37,2.345-3.279,2.345-5.726c0-2.673-0.845-4.672-2.531-5.997
		c-1.688-1.325-4.117-1.987-7.289-1.987h-9.445V176.705z M476.612,181.938v17.976h12.911c3.059,0,5.431-0.753,7.119-2.26
		c1.688-1.507,2.531-3.642,2.531-6.405c0-2.74-0.861-4.949-2.582-6.626c-1.723-1.676-4.044-2.57-6.966-2.685h-0.442H476.612z"/>
</g>
<g>
	<line fill="#FFFEFE" x1="505.246" y1="107.613" x2="0" y2="107.613"/>
	<rect y="107.013" fill="#FFFEFE" width="505.246" height="1.2"/>
</g>
</svg>
